<?xml version="1.0" encoding="UTF-8"?>
<svg version="1.1" xmlns="http://www.w3.org/2000/svg" width="160" height="160">
<path d="M0 0 C6.50710984 5.9142069 10.71105548 14.08058492 11.56738281 22.86450195 C11.64160153 25.5826386 11.62454454 28.28167343 11.5625 31 C11.55734375 31.91910156 11.5521875 32.83820312 11.546875 33.78515625 C11.46843942 40.56002919 11.46843942 40.56002919 10.70532227 43.93652344 C10.57569092 44.6999707 10.44605957 45.46341797 10.3125 46.25 C11.06080078 47.13171875 11.06080078 47.13171875 11.82421875 48.03125 C13.81189916 50.99451108 13.23557102 53.04947312 12.60742188 56.44921875 C12.44822266 57.20847656 12.28902344 57.96773438 12.125 58.75 C11.98513672 59.50925781 11.84527344 60.26851563 11.70117188 61.05078125 C10.98992136 64.72611195 10.27182583 68.00459686 8.3125 71.25 C9.55966797 71.32347656 9.55966797 71.32347656 10.83203125 71.3984375 C12.46205078 71.51058594 12.46205078 71.51058594 14.125 71.625 C15.20394531 71.69460937 16.28289062 71.76421875 17.39453125 71.8359375 C20.3125 72.25 20.3125 72.25 23.3125 74.25 C25.55630004 80.98140012 24.31424111 88.71329854 23.8125 95.6875 C23.72871094 96.95722656 23.64492187 98.22695312 23.55859375 99.53515625 C23.40341209 101.87766035 23.2312599 104.21916003 23.03515625 106.55859375 C22.68896388 113.186911 23.61641313 116.58487387 27.64453125 121.828125 C32.13057142 128.3418133 34.3125 135.42592787 34.3125 143.25 C-11.5575 143.25 -57.4275 143.25 -104.6875 143.25 C-103.65978462 134.0005616 -102.29042275 124.4420992 -95.375 117.625 C-93.51637788 115.70055234 -92.74070949 114.67343791 -92.40307617 111.98657227 C-92.42861572 111.12604248 -92.45415527 110.2655127 -92.48046875 109.37890625 C-92.50439697 108.40373047 -92.5283252 107.42855469 -92.55297852 106.42382812 C-92.59737061 105.37646484 -92.6417627 104.32910156 -92.6875 103.25 C-92.73253662 102.17169922 -92.77757324 101.09339844 -92.82397461 99.98242188 C-93.03144922 95.42262792 -93.25391521 90.8640969 -93.5078125 86.30664062 C-93.559375 85.19611328 -93.6109375 84.08558594 -93.6640625 82.94140625 C-93.74261475 81.44395874 -93.74261475 81.44395874 -93.82275391 79.91625977 C-93.68043941 77.11081453 -93.22556867 75.58043738 -91.6875 73.25 C-88.98566945 71.89908472 -86.56941794 71.91141942 -83.5625 71.6875 C-82.46679688 71.60371094 -81.37109375 71.51992187 -80.2421875 71.43359375 C-79.39914063 71.37300781 -78.55609375 71.31242187 -77.6875 71.25 C-78.14125 70.46625 -78.595 69.6825 -79.0625 68.875 C-81.97360153 62.38100428 -83.27990966 55.3589159 -82.6875 48.25 C-82.0275 47.59 -81.3675 46.93 -80.6875 46.25 C-80.5524453 44.34069903 -80.5524453 44.34069903 -80.81640625 42.171875 C-80.88384033 41.34703613 -80.95127441 40.52219727 -81.02075195 39.67236328 C-81.09640381 38.7904834 -81.17205566 37.90860352 -81.25 37 C-81.97137269 26.34279335 -82.10317517 14.75621564 -74.6875 6.25 C-56.12225611 -14.37804877 -22.01887761 -17.33401003 0 0 Z " fill="#878A8C" transform="translate(116.6875,16.75)"/>
<path d="M0 0 C6.50710984 5.9142069 10.71105548 14.08058492 11.56738281 22.86450195 C11.64160153 25.5826386 11.62454454 28.28167343 11.5625 31 C11.55734375 31.91910156 11.5521875 32.83820312 11.546875 33.78515625 C11.46843942 40.56002919 11.46843942 40.56002919 10.70532227 43.93652344 C10.57569092 44.6999707 10.44605957 45.46341797 10.3125 46.25 C11.06080078 47.13171875 11.06080078 47.13171875 11.82421875 48.03125 C13.81189916 50.99451108 13.23557102 53.04947312 12.60742188 56.44921875 C12.44822266 57.20847656 12.28902344 57.96773438 12.125 58.75 C11.98513672 59.50925781 11.84527344 60.26851563 11.70117188 61.05078125 C10.98992136 64.72611195 10.27182583 68.00459686 8.3125 71.25 C9.14394531 71.28738281 9.97539063 71.32476562 10.83203125 71.36328125 C11.91871094 71.42902344 13.00539063 71.49476562 14.125 71.5625 C15.20394531 71.62050781 16.28289062 71.67851563 17.39453125 71.73828125 C20.3125 72.25 20.3125 72.25 23.3125 75.25 C-14.9675 75.58 -53.2475 75.91 -92.6875 76.25 C-92.3575 75.26 -92.0275 74.27 -91.6875 73.25 C-88.98566945 71.89908472 -86.56941794 71.91141942 -83.5625 71.6875 C-82.46679688 71.60371094 -81.37109375 71.51992187 -80.2421875 71.43359375 C-79.39914063 71.37300781 -78.55609375 71.31242187 -77.6875 71.25 C-78.368125 70.074375 -78.368125 70.074375 -79.0625 68.875 C-81.97360153 62.38100428 -83.27990966 55.3589159 -82.6875 48.25 C-82.0275 47.59 -81.3675 46.93 -80.6875 46.25 C-80.5524453 44.34069903 -80.5524453 44.34069903 -80.81640625 42.171875 C-80.88384033 41.34703613 -80.95127441 40.52219727 -81.02075195 39.67236328 C-81.09640381 38.7904834 -81.17205566 37.90860352 -81.25 37 C-81.97137269 26.34279335 -82.10317517 14.75621564 -74.6875 6.25 C-56.12225611 -14.37804877 -22.01887761 -17.33401003 0 0 Z " fill="#DDB58F" transform="translate(116.6875,16.75)"/>
<path d="M0 0 C6.52750214 5.93274113 10.67729144 14.0838989 11.58349609 22.88061523 C11.67688299 25.61428184 11.67352186 28.32780777 11.625 31.0625 C11.62822266 31.98998047 11.63144531 32.91746094 11.63476562 33.87304688 C11.59981923 38.27946956 11.54714586 41.35952548 9.3125 45.25 C9.28744385 44.50838623 9.2623877 43.76677246 9.23657227 43.00268555 C9.12063868 39.64744672 8.99790015 36.29249056 8.875 32.9375 C8.83568359 31.77025391 8.79636719 30.60300781 8.75585938 29.40039062 C8.71396484 28.28212891 8.67207031 27.16386719 8.62890625 26.01171875 C8.59224854 24.98006592 8.55559082 23.94841309 8.51782227 22.88549805 C8.41088758 20.14251742 8.41088758 20.14251742 7.3125 17.25 C6.3225 18.735 6.3225 18.735 5.3125 20.25 C2.921875 20.7265625 2.921875 20.7265625 0.0625 20.875 C-2.79711315 21.04088916 -5.52510078 21.21866819 -8.33984375 21.76171875 C-13.22651578 22.47447721 -18.0681906 22.43434061 -23 22.4375 C-23.99451172 22.44974609 -24.98902344 22.46199219 -26.01367188 22.47460938 C-38.54333902 22.49929027 -38.54333902 22.49929027 -43.6875 20.25 C-44.1825 18.765 -44.1825 18.765 -44.6875 17.25 C-45.96625 17.188125 -47.245 17.12625 -48.5625 17.0625 C-55.62912396 16.29098567 -61.69523579 13.24226421 -66.6875 8.25 C-67.3475 8.25 -68.0075 8.25 -68.6875 8.25 C-68.749375 9.013125 -68.81125 9.77625 -68.875 10.5625 C-69.143125 11.449375 -69.41125 12.33625 -69.6875 13.25 C-70.89599609 13.88421875 -70.89599609 13.88421875 -72.12890625 14.53125 C-74.91363377 16.05186511 -74.91363377 16.05186511 -75.796875 19.04296875 C-77.5104509 28.1228313 -78.34003961 37.02432762 -78.6875 46.25 C-83.53254794 38.98242808 -82.1270876 26.85710963 -80.5 18.5625 C-77.78086389 7.80899341 -70.81908197 1.23332898 -61.6875 -4.75 C-43.23268863 -14.9767637 -16.66802689 -13.12163819 0 0 Z " fill="#DDCD87" transform="translate(116.6875,16.75)"/>
<path d="M0 0 C2.78122854 1.35017135 5.41287643 2.84772586 8.0625 4.4375 C12.49090006 6.94275128 16.86845836 8.20494266 21.8125 9.32421875 C22.534375 9.54722656 23.25625 9.77023438 24 10 C24.495 10.99 24.495 10.99 25 12 C31.50213723 14.43472938 38.53587435 14.30442275 45.375 14.25 C46.33921875 14.25773437 47.3034375 14.26546875 48.296875 14.2734375 C54.25934478 14.25745233 59.81867762 13.65084246 65.65454102 12.42260742 C68 12 68 12 71.5625 12.0625 C72.366875 12.041875 73.17125 12.02125 74 12 C74.66 11.01 75.32 10.02 76 9 C78.03446429 12.37912515 78.26233839 15.02423624 78.30859375 18.9375 C78.33373047 20.07960938 78.35886719 21.22171875 78.38476562 22.3984375 C78.41992108 24.79942516 78.45117133 27.20047318 78.47851562 29.6015625 C78.5181543 31.31472656 78.5181543 31.31472656 78.55859375 33.0625 C78.57877563 34.62677734 78.57877563 34.62677734 78.59936523 36.22265625 C79.05301122 39.36749275 80.09002528 40.54120774 82 43 C81.80541888 45.96883615 81.4666256 48.5508601 80.875 51.4375 C80.74351562 52.18837891 80.61203125 52.93925781 80.4765625 53.71289062 C79.66002601 58.01104796 78.64752816 61.41437131 76 65 C72.44568558 66.71133657 67.85871021 66.06431184 64 66 C64.41572266 64.81857422 64.41572266 64.81857422 64.83984375 63.61328125 C67.48480818 55.65956258 68.755238 48.36447547 69 40 C69.03996094 39.08992188 69.07992187 38.17984375 69.12109375 37.2421875 C69.26255463 31.8001042 68.54648899 27.21940035 67 22 C66.22474976 22.24689575 66.22474976 22.24689575 65.43383789 22.4987793 C59.61812594 23.69645776 53.36095896 22.98302602 47.4375 22.8125 C46.69445618 22.79210663 45.95141235 22.77171326 45.18585205 22.7507019 C30.82348564 22.32222665 17.79812154 19.99607935 4 16 C-3.82038114 30.82895801 -0.95616243 46.33845154 2.4765625 62.10546875 C2.64929688 63.06066406 2.82203125 64.01585938 3 65 C2 66 2 66 -1.25 66.25 C-5.35647971 65.97623469 -6.97795248 65.77021022 -10 63 C-13.61993774 56.25786596 -13.66481283 48.47814128 -14 41 C-12.68 40.34 -11.36 39.68 -10 39 C-10.03480469 38.00742187 -10.06960937 37.01484375 -10.10546875 35.9921875 C-10.32720618 26.85456915 -10.25321724 17.67929226 -7 9 C-3.8447205 6 -3.8447205 6 -1 6 C-1.020625 5.195625 -1.04125 4.39125 -1.0625 3.5625 C-1 1 -1 1 0 0 Z " fill="#BE8155" transform="translate(48,24)"/>
<path d="M0 0 C0.99 0.33 1.98 0.66 3 1 C2.01 1.33 1.02 1.66 0 2 C0.99 4.97 1.98 7.94 3 11 C3.99 10.67 4.98 10.34 6 10 C8.2421875 10.63671875 8.2421875 10.63671875 10.875 11.6875 C16.29988391 13.77343667 21.77968403 15.50618394 27.34765625 17.16796875 C30 18 30 18 32 19 C34.55106029 19.15644172 37.07918663 19.25821389 39.6328125 19.31640625 C40.38464813 19.33718735 41.13648376 19.35796844 41.91110229 19.37937927 C44.31564085 19.44482705 46.72028967 19.50373738 49.125 19.5625 C50.75391771 19.60568977 52.38282422 19.64930421 54.01171875 19.69335938 C58.00769915 19.80050351 62.00379059 19.90178433 66 20 C66.495 20.99 66.495 20.99 67 22 C60.81325423 23.97030734 53.86233914 22.99745988 47.4375 22.8125 C46.69445618 22.79210663 45.95141235 22.77171326 45.18585205 22.7507019 C30.82348564 22.32222665 17.79812154 19.99607935 4 16 C-3.82038114 30.82895801 -0.95616243 46.33845154 2.4765625 62.10546875 C2.64929688 63.06066406 2.82203125 64.01585938 3 65 C2 66 2 66 -1.25 66.25 C-5.35647971 65.97623469 -6.97795248 65.77021022 -10 63 C-13.61993774 56.25786596 -13.66481283 48.47814128 -14 41 C-12.68 40.34 -11.36 39.68 -10 39 C-10.03480469 38.00742187 -10.06960937 37.01484375 -10.10546875 35.9921875 C-10.32720618 26.85456915 -10.25321724 17.67929226 -7 9 C-3.8447205 6 -3.8447205 6 -1 6 C-1.020625 5.195625 -1.04125 4.39125 -1.0625 3.5625 C-1 1 -1 1 0 0 Z " fill="#C0A559" transform="translate(48,24)"/>
<path d="M0 0 C0.0501123 0.80219971 0.10022461 1.60439941 0.15185547 2.4309082 C0.3836724 6.05876428 0.62916848 9.68556779 0.875 13.3125 C0.95363281 14.57513672 1.03226563 15.83777344 1.11328125 17.13867188 C1.19707031 18.34716797 1.28085937 19.55566406 1.3671875 20.80078125 C1.44050293 21.91622314 1.51381836 23.03166504 1.58935547 24.1809082 C1.8232443 27.19958609 1.8232443 27.19958609 4 30 C-1.94 30 -7.88 30 -14 30 C-13.44461503 19.07742901 -10.04601568 9.29851653 -2.453125 1.29296875 C-1 0 -1 0 0 0 Z " fill="#2B339D" transform="translate(26,130)"/>
<path d="M0 0 C7.12409499 5.6083301 11.0434738 12.95996554 13.1484375 21.6953125 C13.52104672 25.31230737 13.5253946 28.87501037 13.4609375 32.5078125 C13.46416016 33.43529297 13.46738281 34.36277344 13.47070312 35.31835938 C13.43575673 39.72478206 13.38308336 42.80483798 11.1484375 46.6953125 C11.14432861 45.99035645 11.14021973 45.28540039 11.13598633 44.55908203 C11.10274449 41.31201929 11.03206748 38.06675768 10.9609375 34.8203125 C10.95513672 33.71171875 10.94933594 32.603125 10.94335938 31.4609375 C10.76145129 24.58885428 9.7616457 19.74144665 6.21362305 13.81201172 C5.1484375 11.6953125 5.1484375 11.6953125 5.1484375 7.6953125 C4.78492188 8.20578125 4.42140625 8.71625 4.046875 9.2421875 C2.1484375 10.6953125 2.1484375 10.6953125 -0.8125 10.5859375 C-1.93914062 10.37453125 -3.06578125 10.163125 -4.2265625 9.9453125 C-5.34804687 9.74421875 -6.46953125 9.543125 -7.625 9.3359375 C-9.22214844 9.01882812 -9.22214844 9.01882812 -10.8515625 8.6953125 C-11.81320313 8.50453125 -12.77484375 8.31375 -13.765625 8.1171875 C-14.45398438 7.97796875 -15.14234375 7.83875 -15.8515625 7.6953125 C-15.5215625 7.0353125 -15.1915625 6.3753125 -14.8515625 5.6953125 C-9.5715625 6.0253125 -4.2915625 6.3553125 1.1484375 6.6953125 C-2.69879505 1.80503691 -2.69879505 1.80503691 -7.6015625 -0.9921875 C-8.40078125 -1.38792969 -9.2 -1.78367187 -10.0234375 -2.19140625 C-17.86876453 -5.27969106 -24.93084523 -5.61428263 -33.2890625 -5.5546875 C-34.91038086 -5.56628906 -34.91038086 -5.56628906 -36.56445312 -5.578125 C-42.97375198 -5.56257788 -48.65382702 -4.94698965 -54.8515625 -3.3046875 C-54.5215625 -4.2946875 -54.1915625 -5.2846875 -53.8515625 -6.3046875 C-37.20757425 -12.84916832 -14.6919952 -10.35258734 0 0 Z " fill="#D5C27A" transform="translate(114.8515625,15.3046875)"/>
<path d="M0 0 C3.65464086 3.38162864 6.03491895 6.45343707 8.1875 10.9375 C8.67605469 11.93652344 9.16460937 12.93554688 9.66796875 13.96484375 C12.07015591 19.43844911 13 22.87995712 13 29 C7.39 29 1.78 29 -4 29 C-3.34 27.68 -2.68 26.36 -2 25 C-1.54557907 22.19904391 -1.54557907 22.19904391 -1.3671875 19.140625 C-1.28339844 18.02558594 -1.19960937 16.91054687 -1.11328125 15.76171875 C-1.03464844 14.60285156 -0.95601562 13.44398438 -0.875 12.25 C-0.78863281 11.07566406 -0.70226562 9.90132812 -0.61328125 8.69140625 C-0.40132918 5.79472797 -0.19719673 2.89771402 0 0 Z " fill="#212B9E" transform="translate(138,131)"/>
<path d="M0 0 C3.70211051 0.58419829 6.47574969 1.6345223 9.75 3.4375 C13.9034893 5.6045379 17.67067416 6.80497601 22.28515625 7.54296875 C22.85105469 7.69378906 23.41695312 7.84460937 24 8 C24.33 8.66 24.66 9.32 25 10 C31.95709016 12.02117298 38.4784087 12.2762704 45.6875 12.1875 C47.19666992 12.1865332 47.19666992 12.1865332 48.73632812 12.18554688 C53.61602121 12.15659682 58.19361109 11.91068421 63 11 C64.62394748 10.9379225 66.25005297 10.91287959 67.875 10.9375 C69.04675781 10.95103516 69.04675781 10.95103516 70.2421875 10.96484375 C70.82226562 10.97644531 71.40234375 10.98804688 72 11 C71.34 12.32 70.68 13.64 70 15 C64.61469424 15.0753595 59.22970953 15.1291594 53.84399414 15.16479492 C52.02004639 15.17968364 50.19613311 15.20000135 48.37231445 15.22631836 C33.15339902 15.44007895 17.7680952 15.25954111 4 8 C3.67 8.66 3.34 9.32 3 10 C0.96564469 6.27034861 0 4.33094958 0 0 Z " fill="#9F7B3C" transform="translate(48,26)"/>
<path d="M0 0 C1.38595619 -0.00856522 1.38595619 -0.00856522 2.7999115 -0.01730347 C3.81658905 -0.01842133 4.8332666 -0.01953918 5.88075256 -0.02069092 C7.48330147 -0.02813828 7.48330147 -0.02813828 9.1182251 -0.03573608 C12.66415543 -0.05038134 16.21004105 -0.05716308 19.7559967 -0.06268311 C22.21217857 -0.06843189 24.66836041 -0.07418965 27.12454224 -0.07995605 C32.27863271 -0.09047229 37.43270755 -0.09631112 42.58680725 -0.09979248 C49.20270338 -0.10528344 55.81839435 -0.12932188 62.43422604 -0.15776443 C67.50844941 -0.17635287 72.58262296 -0.18159435 77.65687752 -0.18312836 C80.09661037 -0.18616318 82.53634219 -0.19421941 84.97604179 -0.20731354 C88.3832415 -0.22429721 91.7899344 -0.22251264 95.19715881 -0.21600342 C96.71913879 -0.22982559 96.71913879 -0.22982559 98.27186584 -0.243927 C99.66205177 -0.23557327 99.66205177 -0.23557327 101.08032227 -0.22705078 C102.28904448 -0.22925062 102.28904448 -0.22925062 103.52218533 -0.2314949 C105.60365295 0.14044189 105.60365295 0.14044189 108.60365295 3.14044189 C70.32365295 3.47044189 32.04365295 3.80044189 -7.39634705 4.14044189 C-7.06634705 3.15044189 -6.73634705 2.16044189 -6.39634705 1.14044189 C-4.03975565 -0.03785381 -2.62792218 0.00970551 0 0 Z " fill="#D1D1D1" transform="translate(31.396347045898438,88.85955810546875)"/>
<path d="M0 0 C37.95 0 75.9 0 115 0 C114.67 0.66 114.34 1.32 114 2 C112.68644531 1.98839844 111.37289062 1.97679688 110.01953125 1.96484375 C108.28385559 1.95546172 106.54817839 1.94636196 104.8125 1.9375 C103.94818359 1.92912109 103.08386719 1.92074219 102.19335938 1.91210938 C100.93168945 1.90727539 100.93168945 1.90727539 99.64453125 1.90234375 C98.87471924 1.89710693 98.10490723 1.89187012 97.31176758 1.88647461 C94.98194342 1.93849358 94.98194342 1.93849358 92.67855835 2.49801636 C89.99650966 3.00065412 87.55712765 3.13347231 84.83129883 3.14526367 C83.81916824 3.15156296 82.80703766 3.15786224 81.76423645 3.16435242 C80.67285873 3.16554581 79.58148102 3.1667392 78.45703125 3.16796875 C77.31155319 3.17202225 76.16607513 3.17607574 74.98588562 3.18025208 C71.26139554 3.18972212 67.5370005 3.1896471 63.8125 3.1875 C62.5538916 3.1882251 61.2952832 3.1889502 59.99853516 3.18969727 C39.93261791 3.18841575 19.99950189 2.64475344 0 1 C0 0.67 0 0.34 0 0 Z " fill="#A4A5A7" transform="translate(25,92)"/>
<path d="M0 0 C0.66 0.33 1.32 0.66 2 1 C3.0592918 4.17787541 3.11458939 6.42588943 3.09765625 9.76171875 C3.09443359 10.87998047 3.09121094 11.99824219 3.08789062 13.15039062 C3.07951172 14.31763672 3.07113281 15.48488281 3.0625 16.6875 C3.05798828 17.86634766 3.05347656 19.04519531 3.04882812 20.25976562 C3.03703273 23.17322789 3.0205727 26.08658863 3 29 C2.34 28.67 1.68 28.34 1 28 C0.87625 27.401875 0.7525 26.80375 0.625 26.1875 C0.16633678 23.84940353 0.16633678 23.84940353 -1.875 22.3125 C-5.80143884 18.03961068 -7 12.69962474 -7 7 C-6.01 6.67 -5.02 6.34 -4 6 C-3.67 5.34 -3.34 4.68 -3 4 C-4.32 3.67 -5.64 3.34 -7 3 C-5.02 3 -3.04 3 -1 3 C-0.67 2.01 -0.34 1.02 0 0 Z " fill="#BFA458" transform="translate(123,33)"/>
<path d="M0 0 C0.33 0.66 0.66 1.32 1 2 C1.66 2.33 2.32 2.66 3 3 C0 5 0 5 -2 5 C-2.99 6.485 -2.99 6.485 -4 8 C-3.34 8.66 -2.68 9.32 -2 10 C-2 11.32 -2 12.64 -2 14 C-2.78890625 14.44988281 -3.5778125 14.89976563 -4.390625 15.36328125 C-7.23479999 16.78903681 -7.23479999 16.78903681 -8.109375 19.79296875 C-9.8229509 28.8728313 -10.65253961 37.77432762 -11 47 C-15.84504794 39.73242808 -14.4395876 27.60710963 -12.8125 19.3125 C-10.85652702 11.57711365 -7.80493697 7.49941397 -2 2 C-1.34 1.34 -0.68 0.68 0 0 Z " fill="#E6DB97" transform="translate(49,16)"/>
<path d="M0 0 C2.5 1.5625 2.5 1.5625 4 4 C3.78571429 10.21428571 3.78571429 10.21428571 1 13 C-6.16065574 13.68196721 -6.16065574 13.68196721 -9 11.375 C-10.2766188 8.34303035 -10.41616519 6.25996064 -10 3 C-7.71982624 -1.02383605 -4.21281932 -0.51736378 0 0 Z " fill="#250800" transform="translate(104,63)"/>
<path d="M0 0 C0.33 0.99 0.66 1.98 1 3 C1.99 3.33 2.98 3.66 4 4 C3.67 6.31 3.34 8.62 3 11 C3.66 11 4.32 11 5 11 C4.34 12.65 3.68 14.3 3 16 C-0.05072097 16.28780387 -2.95880164 16.43137565 -6 16 C-8.42953247 13.42322314 -8.90752313 11.79530109 -9.3125 8.3125 C-9 6 -9 6 -7 4 C-4.375 3.875 -4.375 3.875 -2 4 C-1.34 2.68 -0.68 1.36 0 0 Z " fill="#F5F6F6" transform="translate(84,119)"/>
<path d="M0 0 C0.59425781 0.13277344 1.18851563 0.26554687 1.80078125 0.40234375 C7.2734991 1.56838161 12.57305287 2.2919456 18.1640625 2.55859375 C21 3 21 3 24.66357422 4.49560547 C28.91856166 6.11927246 32.69650641 6.47057974 37.21875 6.51171875 C37.96209595 6.52966995 38.70544189 6.54762115 39.47131348 6.56611633 C41.81415354 6.61971465 44.15679605 6.6539498 46.5 6.6875 C48.10158972 6.72071792 49.70315351 6.75521163 51.3046875 6.79101562 C55.20298111 6.87541066 59.10122131 6.94245932 63 7 C63.495 7.99 63.495 7.99 64 9 C57.81325423 10.97030734 50.86233914 9.99745988 44.4375 9.8125 C43.69445618 9.79210663 42.95141235 9.77171326 42.18585205 9.7507019 C30.43108377 9.40001963 19.35841568 8.19530802 8 5 C7.3390332 4.84515137 6.67806641 4.69030273 5.99707031 4.53076172 C4.0703125 4.05859375 4.0703125 4.05859375 1 3 C0.67 2.01 0.34 1.02 0 0 Z " fill="#CC936A" transform="translate(51,37)"/>
<path d="M0 0 C0.33 0 0.66 0 1 0 C1.0501123 0.62044189 1.10022461 1.24088379 1.15185547 1.88012695 C1.38398505 4.6917373 1.62933693 7.50204118 1.875 10.3125 C1.95363281 11.28896484 2.03226563 12.26542969 2.11328125 13.27148438 C2.19707031 14.20927734 2.28085937 15.14707031 2.3671875 16.11328125 C2.44050293 16.97735596 2.51381836 17.84143066 2.58935547 18.73168945 C2.89393458 21.27164237 2.89393458 21.27164237 5 24 C1.04 24 -2.92 24 -7 24 C-4.93939394 4.93939394 -4.93939394 4.93939394 0 0 Z " fill="#2E3AC9" transform="translate(25,136)"/>
<path d="M0 0 C2.86724686 0.57344937 3.8614515 0.8614515 6 3 C6.5109181 6.23581461 6.28519568 7.57791039 4.4375 10.3125 C1.08673477 12.63226055 -1.01217855 12.58004676 -5 12 C-6.9375 10.375 -6.9375 10.375 -8 8 C-8.1875 4.75 -8.1875 4.75 -8 2 C-5.69 2.33 -3.38 2.66 -1 3 C-0.67 2.01 -0.34 1.02 0 0 Z " fill="#2A0900" transform="translate(64,64)"/>
<path d="M0 0 C0.33 0 0.66 0 1 0 C1.01458252 0.64437012 1.02916504 1.28874023 1.04418945 1.95263672 C1.11955474 4.92730199 1.2159163 7.90095095 1.3125 10.875 C1.33505859 11.88820313 1.35761719 12.90140625 1.38085938 13.9453125 C1.6198779 20.72474712 2.70774199 26.61284308 5 33 C1.71303767 33.79953138 0.28976808 34.09658936 -3 33 C-3 25.74 -3 18.48 -3 11 C-2.34 11 -1.68 11 -1 11 C-0.67 7.37 -0.34 3.74 0 0 Z " fill="#B3734B" transform="translate(43,56)"/>
<path d="M0 0 C0.33 0 0.66 0 1 0 C2.12960471 4.84830339 2.48862696 9.74166873 2.9375 14.6875 C3.58849904 21.57091236 4.42632167 28.2556643 6 35 C4.02 35.495 4.02 35.495 2 36 C-0.64318553 27.98871595 -1.4154573 20.78229916 -1.25 12.375 C-1.24484375 11.28832031 -1.2396875 10.20164062 -1.234375 9.08203125 C-1.15500553 1.15500553 -1.15500553 1.15500553 0 0 Z " fill="#CF9870" transform="translate(45,54)"/>
<path d="M0 0 C2.5625 1.96484375 2.5625 1.96484375 5 5 C5.2758296 7.98090842 4.6624415 10.66120544 4 13.5625 C3.85949219 14.31724609 3.71898437 15.07199219 3.57421875 15.84960938 C2.75299976 19.90214655 1.89846113 22.89568225 -1 26 C-3.49173461 22.26239808 -3.40846784 19.32495359 -3 15 C-2.37212429 12.65593068 -1.70491267 10.32206525 -1 8 C-0.57246453 5.33612517 -0.28261231 2.68481694 0 0 Z " fill="#CC9C75" transform="translate(125,62)"/>
<path d="M0 0 C0.33 1.32 0.66 2.64 1 4 C1.66 4 2.32 4 3 4 C3.64757625 5.43671568 4.29299453 6.87440416 4.9375 8.3125 C5.29714844 9.11300781 5.65679687 9.91351563 6.02734375 10.73828125 C8.1299505 15.62747525 8.1299505 15.62747525 7.0625 18.6875 C6.711875 19.450625 6.36125 20.21375 6 21 C3.03 21 0.06 21 -3 21 C-2.34 19.68 -1.68 18.36 -1 17 C-0.64195823 14.97976958 -0.64195823 14.97976958 -0.5859375 12.890625 C-0.54726562 12.13652344 -0.50859375 11.38242188 -0.46875 10.60546875 C-0.4378125 9.82816406 -0.406875 9.05085937 -0.375 8.25 C-0.33632812 7.45722656 -0.29765625 6.66445312 -0.2578125 5.84765625 C-0.163892 3.89880584 -0.08087178 1.94943549 0 0 Z " fill="#2D38C5" transform="translate(137,139)"/>
<path d="M0 0 C1.32 0.33 2.64 0.66 4 1 C4.12527964 7.51454139 4.12527964 7.51454139 3.5 9.9375 C2.40313384 14.46207293 2.52526205 19.57578615 4 24 C1.69 24.33 -0.62 24.66 -3 25 C-2.10570912 16.65328509 -1.05248577 8.32792142 0 0 Z " fill="#B7764C" transform="translate(120,65)"/>
<path d="M0 0 C1.38445313 0.41572266 1.38445313 0.41572266 2.796875 0.83984375 C13.86640884 3.97544455 24.52723541 4.76490236 36 5 C35.67 5.66 35.34 6.32 35 7 C32.36 7.33 29.72 7.66 27 8 C33.93 8.33 40.86 8.66 48 9 C48 9.33 48 9.66 48 10 C44.35423608 10.05878077 40.70859648 10.0938558 37.0625 10.125 C36.04091797 10.14175781 35.01933594 10.15851562 33.96679688 10.17578125 C27.66770379 10.21603105 22.0412067 9.87122505 16 8 C15.67 7.01 15.34 6.02 15 5 C14.41992188 4.96261719 13.83984375 4.92523438 13.2421875 4.88671875 C8.18321136 4.46096333 4.45720842 3.62861009 0 1 C0 0.67 0 0.34 0 0 Z " fill="#D6C47C" transform="translate(57,29)"/>
<path d="M0 0 C2.44212487 3.6631873 2.34276767 6.44671637 2.3125 10.6875 C2.31121094 11.4312085 2.30992188 12.17491699 2.30859375 12.94116211 C2.17579172 20.81715254 0.73219603 28.33915686 -1 36 C-2.65 36 -4.3 36 -6 36 C-5.72285156 35.21238281 -5.44570312 34.42476562 -5.16015625 33.61328125 C-2.00520335 24.12596738 -0.92807258 15.27444813 -1 5.3125 C-1 2 -1 2 0 0 Z " fill="#CA9268" transform="translate(118,54)"/>
<path d="M0 0 C0.33 0 0.66 0 1 0 C1.66 2.64 2.32 5.28 3 8 C3.66 7.67 4.32 7.34 5 7 C6.06723961 10.46222615 6.10173486 13.64039266 6.0625 17.25 C6.05347656 18.32765625 6.04445313 19.4053125 6.03515625 20.515625 C6.02355469 21.33546875 6.01195312 22.1553125 6 23 C5.01 23 4.02 23 3 23 C0.16730148 15.7335125 -0.95347531 8.81614727 -1 1 C-0.67 0.67 -0.34 0.34 0 0 Z " fill="#B98867" transform="translate(35,64)"/>
<path d="M0 0 C5.09407019 3.82055264 5.79421476 6.93534681 7 13 C7.20597179 15.73022185 7.15235769 18.25756154 7 21 C6.34 21.33 5.68 21.66 5 22 C4.01 18.7 3.02 15.4 2 12 C1.34 12 0.68 12 0 12 C0 8.04 0 4.08 0 0 Z " fill="#2430AE" transform="translate(138,131)"/>
<path d="M0 0 C3.125 1.3125 3.125 1.3125 5 3 C5 3.99 5 4.98 5 6 C-0.28 5.67 -5.56 5.34 -11 5 C-11.33 3.68 -11.66 2.36 -12 1 C-8.31536722 -0.84231639 -4.03062994 -0.36066861 0 0 Z " fill="#6C4026" transform="translate(105,52)"/>
<path d="M0 0 C0.66 0 1.32 0 2 0 C2.24234375 0.81984375 2.4846875 1.6396875 2.734375 2.484375 C3.06953125 3.56203125 3.4046875 4.6396875 3.75 5.75 C4.07484375 6.81734375 4.3996875 7.8846875 4.734375 8.984375 C6.07094158 12.16903365 7.55400999 13.63355438 10 16 C11.11303825 18.91371269 11.10806889 21.6513153 11.0625 24.75 C11.05347656 25.54921875 11.04445313 26.3484375 11.03515625 27.171875 C11.02355469 27.77515625 11.01195313 28.3784375 11 29 C10.67 27.68 10.34 26.36 10 25 C8.68 24.67 7.36 24.34 6 24 C5.67 20.37 5.34 16.74 5 13 C4.34 13 3.68 13 3 13 C2.49242138 11.58603098 1.99425075 10.16868271 1.5 8.75 C1.08234375 7.56664062 1.08234375 7.56664062 0.65625 6.359375 C0 4 0 4 0 0 Z " fill="#B08E4A" transform="translate(114,41)"/>
<path d="M0 0 C0.66 0.33 1.32 0.66 2 1 C1.38125 1.721875 0.7625 2.44375 0.125 3.1875 C-3.6202854 8.14449539 -4.33995716 12.60873139 -4.6328125 18.70703125 C-4.69515579 19.79512337 -4.69515579 19.79512337 -4.75875854 20.90519714 C-4.88882902 23.20727091 -5.0070843 25.50977488 -5.125 27.8125 C-5.21145849 29.37960058 -5.29868982 30.94665873 -5.38671875 32.51367188 C-5.60009526 36.34201457 -5.80288253 40.17078711 -6 44 C-8.39763185 41.60236815 -8.34280586 40.66726502 -8.625 37.375 C-8.69976562 36.55773437 -8.77453125 35.74046875 -8.8515625 34.8984375 C-8.90054688 34.27195313 -8.94953125 33.64546875 -9 33 C-8.34 33 -7.68 33 -7 33 C-7.03480469 32.00742187 -7.06960937 31.01484375 -7.10546875 29.9921875 C-7.32720618 20.85456915 -7.25321724 11.67929226 -4 3 C-1.890625 1.11328125 -1.890625 1.11328125 0 0 Z " fill="#CFBB75" transform="translate(45,30)"/>
<path d="M0 0 C0 1.32 0 2.64 0 4 C-8.415 4.495 -8.415 4.495 -17 5 C-16.67 3.68 -16.34 2.36 -16 1 C-11.33430242 -1.27595004 -4.8105246 -2.4052623 0 0 Z " fill="#6B3F25" transform="translate(70,53)"/>
<path d="M0 0 C0.66 0.99 1.32 1.98 2 3 C2.99 2.67 3.98 2.34 5 2 C7.5234375 2.7421875 7.5234375 2.7421875 10.375 3.875 C13.91718324 5.27040552 17.24300657 6.35789567 21 7 C21 7.33 21 7.66 21 8 C14.03672362 8.33693273 8.56654456 7.3030887 2 5 C1.8453125 6.794375 1.8453125 6.794375 1.6875 8.625 C1.21108648 12.5624176 -0.01130716 15.54140375 -2 19 C-3.49278322 15.11876362 -2.30030822 12.82868532 -1 9 C-0.54967291 6.00924077 -0.25445139 3.01324012 0 0 Z " fill="#B89952" transform="translate(49,32)"/>
<path d="M0 0 C-0.33 0.99 -0.66 1.98 -1 3 C-1.99 3 -2.98 3 -4 3 C-3.67 4.65 -3.34 6.3 -3 8 C0.3 7.34 3.6 6.68 7 6 C6 8.5 6 8.5 4 11 C1.21965303 11.70087913 -1.2088409 11.62219588 -4 11 C-6 9.375 -6 9.375 -7 7 C-7.1875 3.75 -7.1875 3.75 -7 1 C-3.375 -1.125 -3.375 -1.125 0 0 Z " fill="#9C7114" transform="translate(101,65)"/>
<path d="M0 0 C0.66 0 1.32 0 2 0 C4.34334487 5.56079457 4.29910315 10.69988607 4.25 16.625 C4.25773438 17.56601562 4.26546875 18.50703125 4.2734375 19.4765625 C4.27085937 20.3840625 4.26828125 21.2915625 4.265625 22.2265625 C4.26336914 23.04721191 4.26111328 23.86786133 4.25878906 24.71337891 C3.97703109 27.20294985 3.24583723 28.84421909 2 31 C1.97494385 30.27409668 1.9498877 29.54819336 1.92407227 28.80029297 C1.80758759 25.49170554 1.68509986 22.18336624 1.5625 18.875 C1.52318359 17.73289062 1.48386719 16.59078125 1.44335938 15.4140625 C1.40146484 14.30546875 1.35957031 13.196875 1.31640625 12.0546875 C1.27974854 11.03874512 1.24309082 10.02280273 1.20532227 8.97607422 C0.99535432 5.93266243 0.54938704 2.99914492 0 0 Z " fill="#D8C77F" transform="translate(124,31)"/>
<path d="M0 0 C0.99 0.33 1.98 0.66 3 1 C2.01 1.33 1.02 1.66 0 2 C0.23976562 2.82757812 0.23976562 2.82757812 0.484375 3.671875 C2.16327679 11.25237098 1.16092337 18.01962756 -2 25 C-2.33 25 -2.66 25 -3 25 C-3.55353075 6.95899772 -3.55353075 6.95899772 0 0 Z " fill="#C7AF63" transform="translate(48,24)"/>
<path d="M0 0 C0.66 0.33 1.32 0.66 2 1 C1.505 1.37125 1.01 1.7425 0.5 2.125 C-1.24257285 3.9828332 -1.24257285 3.9828332 -1.4375 6.875 C-0.90917428 10.64875512 0.42297737 12.26191346 3 15 C-0.73487777 14.5020163 -2.81237635 14.12508244 -6 12 C-6.5 9.1875 -6.5 9.1875 -6 6 C-3.5625 3.1875 -3.5625 3.1875 -1 1 C-0.67 0.67 -0.34 0.34 0 0 Z " fill="#E9E6E2" transform="translate(58,62)"/>
<path d="M0 0 C4.95 0 9.9 0 15 0 C15 1.32 15 2.64 15 4 C10.05 4 5.1 4 0 4 C0 2.68 0 1.36 0 0 Z " fill="#C3875F" transform="translate(74,86)"/>
<path d="M0 0 C1.32 0.66 2.64 1.32 4 2 C4.4726477 10.19256018 4.4726477 10.19256018 2.5 13.5625 C2.005 14.036875 1.51 14.51125 1 15 C-1.48570024 11.27144964 -1.30344304 8.30889122 -1 4 C-0.5 1.5 -0.5 1.5 0 0 Z " fill="#BE845E" transform="translate(123,73)"/>
<path d="M0 0 C0.66 0.33 1.32 0.66 2 1 C2.35430394 4.18873549 2.25953249 5.61589191 0.4375 8.3125 C-2.8803564 10.60947751 -5.05252248 10.51171005 -9 10 C-9.66 9.01 -10.32 8.02 -11 7 C-8.07175348 6.02391783 -6.04386724 5.91773332 -3 6 C-2.01 4.02 -1.02 2.04 0 0 Z " fill="#A27817" transform="translate(68,66)"/>
<path d="M0 0 C0.66 0.33 1.32 0.66 2 1 C1.67 1.66 1.34 2.32 1 3 C2.98 2.01 4.96 1.02 7 0 C7 0.66 7 1.32 7 2 C6.21109375 2.40089844 5.4221875 2.80179688 4.609375 3.21484375 C1.74206561 4.80705023 1.74206561 4.80705023 0.890625 8.00390625 C0.67921875 9.17824219 0.4678125 10.35257813 0.25 11.5625 C0.02183594 12.80386719 -0.20632812 14.04523437 -0.44140625 15.32421875 C-1.1329216 19.87467987 -1.69311466 24.40730214 -2 29 C-2.33 29 -2.66 29 -3 29 C-3.23789916 22.02162458 -2.92670451 15.23236456 -2.0625 8.3125 C-1.97564941 7.60544922 -1.88879883 6.89839844 -1.79931641 6.16992188 C-1.13194481 1.13194481 -1.13194481 1.13194481 0 0 Z " fill="#DECF89" transform="translate(40,28)"/>
<path d="M0 0 C3.35810395 1.38956025 5.18586552 2.82526467 7 6 C7.1875 8.75 7.1875 8.75 7 11 C4.1875 12.5625 4.1875 12.5625 1 14 C0.01 13.67 -0.98 13.34 -2 13 C-1.319375 12.484375 -0.63875 11.96875 0.0625 11.4375 C2.40324838 9.04467417 2.40324838 9.04467417 1.8125 5.375 C1.17151792 2.15516291 1.17151792 2.15516291 0 0 Z " fill="#EAE8E5" transform="translate(105,63)"/>
<path d="M0 0 C0.66 0.33 1.32 0.66 2 1 C1.34 1.66 0.68 2.32 0 3 C-0.52981019 6.97357645 -0.31881474 8.54170381 2 11.875 C2.66 12.57625 3.32 13.2775 4 14 C1.125 14.125 1.125 14.125 -2 14 C-4 12 -4 12 -4.375 9.25 C-3.91474381 5.26111299 -2.40615735 3.15808152 0 0 Z " fill="#EFEBE5" transform="translate(95,63)"/>
<path d="M0 0 C3.625 0.375 3.625 0.375 6.0625 2.125 C7.625 4.375 7.625 4.375 7.625 8.375 C6.305 8.705 4.985 9.035 3.625 9.375 C3.295 7.395 2.965 5.415 2.625 3.375 C-0.13764289 2.77767181 -2.53532769 2.375 -5.375 2.375 C-3.375 0.375 -3.375 0.375 0 0 Z " fill="#592E0D" transform="translate(100.375,62.625)"/>
<path d="M0 0 C0.66 0 1.32 0 2 0 C0.25 3.875 0.25 3.875 -2 5 C-1.34 3.35 -0.68 1.7 0 0 Z M-3 5 C-2.67 5 -2.34 5 -2 5 C-2.33 8.63 -2.66 12.26 -3 16 C-3.66 16 -4.32 16 -5 16 C-5.33 17.32 -5.66 18.64 -6 20 C-6.17922662 14.8024279 -6.02641345 10.88723244 -4 6 C-3.67 5.67 -3.34 5.34 -3 5 Z " fill="#BB9C54" transform="translate(45,51)"/>
<path d="M0 0 C3.38341694 2.7128298 4.64556362 6.39483941 6.1875 10.3125 C6.46013672 10.96412109 6.73277344 11.61574219 7.01367188 12.28710938 C8.63320636 16.34203405 9.30390627 19.64401017 9 24 C8.34 24 7.68 24 7 24 C6.89042969 23.26394531 6.78085938 22.52789062 6.66796875 21.76953125 C5.80544591 16.46115898 4.950399 12.5485318 2 8 C1.18550887 5.3516546 0.59707269 2.70979143 0 0 Z " fill="#272E88" transform="translate(142,136)"/>
<path d="M0 0 C0.33 0 0.66 0 1 0 C1.10349817 6.41688675 0.74507544 12.62694402 0 19 C-1.65 19 -3.3 19 -5 19 C-4.72285156 18.13117188 -4.44570312 17.26234375 -4.16015625 16.3671875 C-3.79792969 15.21476562 -3.43570313 14.06234375 -3.0625 12.875 C-2.52302734 11.16957031 -2.52302734 11.16957031 -1.97265625 9.4296875 C-1.08101661 6.28567301 -0.46648986 3.23105607 0 0 Z " fill="#CF9A72" transform="translate(117,71)"/>
<path d="M0 0 C1.32 0.33 2.64 0.66 4 1 C4.25 7.625 4.25 7.625 2 11 C1.34 11 0.68 11 0 11 C0 7.37 0 3.74 0 0 Z " fill="#9D763B" transform="translate(120,65)"/>
<path d="M0 0 C1.08539063 0.27714844 2.17078125 0.55429687 3.2890625 0.83984375 C4.73434281 1.2058563 6.17965712 1.5717346 7.625 1.9375 C8.33785156 2.11990234 9.05070312 2.30230469 9.78515625 2.49023438 C13.83969313 3.51316799 17.85947059 4.37957367 22 5 C20.75 6.5625 20.75 6.5625 19 8 C16.8125 7.6875 16.8125 7.6875 15 7 C15 6.34 15 5.68 15 5 C14.41992188 4.96261719 13.83984375 4.92523438 13.2421875 4.88671875 C8.18321136 4.46096333 4.45720842 3.62861009 0 1 C0 0.67 0 0.34 0 0 Z " fill="#C8B065" transform="translate(57,29)"/>
<path d="M0 0 C2.7972908 2.06756277 3.02692273 3.14440371 3.6875 6.6875 C3.790625 7.780625 3.89375 8.87375 4 10 C1.64561267 11.42944945 0.51967567 12.08661261 -2.25 11.625 C-2.8275 11.41875 -3.405 11.2125 -4 11 C-3.01 10.67 -2.02 10.34 -1 10 C-0.835 8.72125 -0.67 7.4425 -0.5 6.125 C-0.4071875 5.40570313 -0.314375 4.68640625 -0.21875 3.9453125 C0.0372485 1.99501656 0.0372485 1.99501656 0 0 Z " fill="#F1EEEA" transform="translate(69,65)"/>
<path d="M0 0 C0.54527344 0.19335938 1.09054688 0.38671875 1.65234375 0.5859375 C7.0438052 2.44760453 12.40921726 3.87655666 18 5 C18 5.33 18 5.66 18 6 C11.03672362 6.33693273 5.56654456 5.3030887 -1 3 C-0.67 2.01 -0.34 1.02 0 0 Z " fill="#BA7B50" transform="translate(52,34)"/>
<path d="M0 0 C0.33 0 0.66 0 1 0 C1.33188114 4.756963 0.62235719 7.06646421 -2 11 C-2.69822617 12.65369357 -3.37498605 14.31727014 -4 16 C-4.33 16 -4.66 16 -5 16 C-3.72093023 3.72093023 -3.72093023 3.72093023 0 0 Z " fill="#2C36B4" transform="translate(25,130)"/>
<path d="M0 0 C-0.33 0.99 -0.66 1.98 -1 3 C-1.99 3 -2.98 3 -4 3 C-3.67 4.32 -3.34 5.64 -3 7 C-4.32 7 -5.64 7 -7 7 C-7 5.02 -7 3.04 -7 1 C-3.375 -1.125 -3.375 -1.125 0 0 Z " fill="#745647" transform="translate(101,65)"/>
<path d="M0 0 C4.46031573 -0.44603157 6.52615127 -0.2983492 10.375 2.125 C13.23034176 5.25227907 13.80641369 6.83789425 14 11 C12.76267106 9.14400659 11.54910054 7.27162394 10.375 5.375 C7.01720386 2.01720386 4.66621202 2.2333106 0 2 C0 1.34 0 0.68 0 0 Z " fill="#C79F81" transform="translate(99,61)"/>
<path d="M0 0 C0.33 0 0.66 0 1 0 C1 4.62 1 9.24 1 14 C-0.32 14 -1.64 14 -3 14 C-3 13.01 -3 12.02 -3 11 C-2.34 11 -1.68 11 -1 11 C-0.67 7.37 -0.34 3.74 0 0 Z " fill="#B08A49" transform="translate(43,56)"/>
<path d="M0 0 C2.27477677 3.53854164 1.99082706 5.70947373 1.125 9.75 C0.92132813 10.73484375 0.71765625 11.7196875 0.5078125 12.734375 C0.34023437 13.48203125 0.17265625 14.2296875 0 15 C-0.33 15 -0.66 15 -1 15 C-1.91457003 9.43842552 -2.32086397 5.324335 0 0 Z " fill="#B08D76" transform="translate(128,65)"/>
<path d="M0 0 C4.95 0.99 4.95 0.99 10 2 C10 2.66 10 3.32 10 4 C10.66 4.33 11.32 4.66 12 5 C8.875 4.47916667 5.75 3.95833333 2.625 3.4375 C1.75875 3.293125 0.8925 3.14875 0 3 C0 2.01 0 1.02 0 0 Z " fill="#CD956C" transform="translate(51,37)"/>
<path d="M0 0 C0.33 0 0.66 0 1 0 C1.08121924 1.60332791 1.13929134 3.20784026 1.1875 4.8125 C1.23970703 6.15248047 1.23970703 6.15248047 1.29296875 7.51953125 C0.95081002 10.41647515 0.24606427 11.22555028 -2 13 C-2.05447047 11.58376784 -2.09300508 10.16691809 -2.125 8.75 C-2.14820312 7.96109375 -2.17140625 7.1721875 -2.1953125 6.359375 C-1.9828378 3.79268059 -1.28654105 2.2083933 0 0 Z " fill="#2A35B6" transform="translate(19,146)"/>
<path d="M0 0 C1.134375 0.020625 2.26875 0.04125 3.4375 0.0625 C2.25 2.0625 2.25 2.0625 0.4375 4.0625 C-2.25 4.3125 -2.25 4.3125 -4.5625 4.0625 C-4.5625 -0.28271095 -4.43767807 0.077854 0 0 Z " fill="#806457" transform="translate(62.5625,62.9375)"/>
<path d="M0 0 C0.66 0 1.32 0 2 0 C2 3.3 2 6.6 2 10 C-0.77867692 7.22132308 -0.65193902 4.8286708 -1 1 C-0.67 0.67 -0.34 0.34 0 0 Z " fill="#D3A279" transform="translate(37,64)"/>
<path d="M0 0 C0.66 0 1.32 0 2 0 C2.33 2.31 2.66 4.62 3 7 C2.67 5.68 2.34 4.36 2 3 C1.01 3.495 1.01 3.495 0 4 C-2.3329866 4.04022391 -4.66706666 4.04320247 -7 4 C-7 3.67 -7 3.34 -7 3 C-5.5459375 2.5359375 -5.5459375 2.5359375 -4.0625 2.0625 C-1.15934208 1.30476658 -1.15934208 1.30476658 0 0 Z " fill="#D6A57E" transform="translate(87,83)"/>
<path d="M0 0 C2.97 0.495 2.97 0.495 6 1 C5.01 1.33 4.02 1.66 3 2 C2.67 3.65 2.34 5.3 2 7 C1.34 6.67 0.68 6.34 0 6 C0 4.02 0 2.04 0 0 Z " fill="#471F10" transform="translate(56,66)"/>
<path d="M0 0 C1.79093191 -0.08086147 3.58289628 -0.13912702 5.375 -0.1875 C6.87160156 -0.23970703 6.87160156 -0.23970703 8.3984375 -0.29296875 C9.25695312 -0.19628906 10.11546875 -0.09960938 11 0 C11.66 0.99 12.32 1.98 13 3 C8.71 2.34 4.42 1.68 0 1 C0 0.67 0 0.34 0 0 Z " fill="#CDB76D" transform="translate(104,23)"/>
<path d="M0 0 C2.9375 0.25 2.9375 0.25 6 1 C6.66 1.99 7.32 2.98 8 4 C4.625 4.1875 4.625 4.1875 1 4 C0.34 3.01 -0.32 2.02 -1 1 C-0.67 0.67 -0.34 0.34 0 0 Z " fill="#7C4C0B" transform="translate(58,72)"/>
<path d="M0 0 C0 1.98 0 3.96 0 6 C-1.32 6 -2.64 6 -4 6 C-3.625 3.5625 -3.625 3.5625 -3 1 C-1 0 -1 0 0 0 Z " fill="#232FB2" transform="translate(147,154)"/>
<path d="M0 0 C0.33 0.99 0.66 1.98 1 3 C1.99 3 2.98 3 4 3 C4 3.66 4 4.32 4 5 C2.02 5 0.04 5 -2 5 C-1.125 1.125 -1.125 1.125 0 0 Z " fill="#AD6F49" transform="translate(120,84)"/>
<path d="M0 0 C0.66 0.33 1.32 0.66 2 1 C1.2884375 1.5878125 1.2884375 1.5878125 0.5625 2.1875 C-1.35179633 4.40808374 -1.61266988 6.13375709 -2 9 C-2.99 8.01 -3.98 7.02 -5 6 C-3.63016497 2.83884224 -3.0109362 2.0072908 0 0 Z " fill="#DCD6CB" transform="translate(58,62)"/>
<path d="M0 0 C0.185625 0.9590625 0.185625 0.9590625 0.375 1.9375 C0.684375 2.9584375 0.684375 2.9584375 1 4 C1.66 4.33 2.32 4.66 3 5 C1.02 5 -0.96 5 -3 5 C-2.625 3.0625 -2.625 3.0625 -2 1 C-1.34 0.67 -0.68 0.34 0 0 Z " fill="#D7A982" transform="translate(77,81)"/>
<path d="M0 0 C0.99 0 1.98 0 3 0 C3 1.65 3 3.3 3 5 C2.01 5.33 1.02 5.66 0 6 C0 4.02 0 2.04 0 0 Z " fill="#81562C" transform="translate(120,70)"/>
<path d="M0 0 C0.99 0 1.98 0 3 0 C3 1.98 3 3.96 3 6 C2.01 5.67 1.02 5.34 0 5 C0 3.35 0 1.7 0 0 Z " fill="#876030" transform="translate(40,70)"/>
<path d="M0 0 C0.928125 0.20625 1.85625 0.4125 2.8125 0.625 C2.1525 1.285 1.4925 1.945 0.8125 2.625 C-2.8125 2.25 -2.8125 2.25 -6.1875 1.625 C-3.1875 -0.375 -3.1875 -0.375 0 0 Z " fill="#BE9678" transform="translate(64.1875,60.375)"/>
</svg>
